<svg version="1.1" xmlns="http://www.w3.org/2000/svg" style="display: block;" viewBox="0 0 2048 2048" width="1024" height="1024" preserveAspectRatio="none">
<path transform="translate(0,0)" fill="rgb(244,238,228)" d="M 841.186 608.586 C 847.352 608.17 858.263 606.923 864.417 607.661 C 865.839 607.832 865.741 608.822 866.402 610.544 C 865.067 617.772 856.28 637.126 851.085 642.319 C 808.671 644.725 763.92 651.672 722.706 661.324 C 705.617 665.326 689.181 666.707 673.483 674.808 C 671.913 706.333 673.207 742.749 672.936 774.662 C 672.536 821.667 673.223 869.57 674.669 916.526 C 676.906 989.186 695.192 1063.77 738.999 1122.9 C 743.398 1128.84 752.783 1141.64 757.94 1146.31 L 759.182 1146.12 C 760.684 1138.23 761.749 1124.64 762.691 1116.13 L 771.085 1044.76 C 773.121 1027.17 775.161 1003.77 779.523 987.099 C 782.569 975.317 787.22 964.011 793.347 953.497 C 820.15 907.653 873.15 880.091 923.051 867.078 C 926.317 870.634 938.164 886.776 940.172 890.979 C 937.59 892.967 924.28 896.69 919.552 898.814 C 878.586 917.176 833.352 937.625 816.395 982.747 C 806.126 1010.07 805.76 1040.42 802.022 1069.08 L 794.269 1133.5 C 792.887 1144.94 791.561 1156.53 789.943 1167.94 C 787.839 1182.77 804.203 1191.77 814.974 1200.56 C 862.241 1239.16 914.842 1271.71 968.327 1300.9 C 987.596 1311.42 1005.99 1321.25 1026.55 1329.04 C 1095.19 1297.58 1164.66 1255.76 1224.23 1209.23 C 1235.02 1200.8 1251.59 1187.29 1261.02 1177.68 L 1247.54 1066.02 C 1244.55 1041.65 1241.27 999.898 1232.42 978.76 C 1212.28 930.648 1154.89 909.858 1110.71 891.438 C 1110.42 886.569 1120.46 872.35 1123.72 866.606 C 1153.88 872.57 1193.44 890.396 1217.61 908.817 C 1270.7 949.286 1272.32 991.932 1279.61 1053.01 C 1283.35 1084.4 1287.33 1118.19 1291.6 1149.43 L 1310.33 1125.65 C 1376.97 1029.66 1374.11 948.347 1374.77 837.637 C 1375.37 783.03 1375.68 728.42 1375.71 673.81 C 1331.39 660.198 1283.6 651.613 1237.56 646.403 C 1224.61 644.938 1208.45 644.158 1196.09 641.219 C 1192.84 634.305 1182.87 616.141 1184.68 610.171 C 1191.42 605.521 1205.41 608.348 1213.32 609.028 C 1270.38 613.926 1325.67 623.923 1381.07 638.235 C 1388.07 640.044 1407.27 642.774 1410.85 649.308 C 1411.96 651.341 1409.51 911.805 1408.84 934.546 C 1408.46 947.546 1407.5 960.743 1405.85 973.647 C 1401.17 1012.81 1390.8 1051.08 1375.07 1087.25 C 1327.28 1194.62 1204.19 1277.25 1104.42 1331.67 C 1077.86 1346.16 1054.57 1359.68 1026.12 1370.67 C 1001.42 1360.96 973.653 1345.88 950.392 1333.27 C 883.405 1296.97 813.609 1253.52 759.045 1200.01 C 687.443 1129.78 646.488 1046.64 639.946 946.337 C 637.824 913.8 638.369 879.5 638.196 846.665 L 637.559 646.786 C 698.182 626.658 778.107 613.849 841.186 608.586 z"/>
<path transform="translate(0,0)" fill="rgb(244,238,228)" d="M 1014.5 572.421 C 1045.64 570.106 1078.9 578.128 1104.59 596.185 C 1134.91 617.082 1155.6 649.244 1162.05 685.496 C 1176.44 769.674 1123.17 860.032 1036.07 874.75 C 998.818 876.336 972.509 867.237 944.214 843.077 C 881.908 789.876 862.777 683.643 919.162 619.533 C 945.278 589.839 975.585 575.206 1014.5 572.421 z M 1034.25 841.06 C 1058.57 838.888 1082.48 822.74 1097.66 804.361 C 1148.33 743.054 1144.83 636.726 1058.65 610.344 C 1048.35 607.191 1029.92 602.676 1019.15 604.436 C 989.872 607.046 963.565 617.074 944.342 640.329 C 925.608 663.178 916.668 692.508 919.473 721.922 C 925.338 782.951 966 846.693 1034.25 841.06 z"/>
<path transform="translate(0,0)" fill="rgb(198,158,76)" d="M 1012.03 372.397 C 1013.41 372.316 1014.8 372.255 1016.19 372.214 C 1072.28 370.385 1153.41 380.34 1196.86 419.307 C 1206.2 427.15 1211.89 440.792 1211.51 452.957 C 1209.21 525.657 1091.6 538.577 1038.08 539.282 C 979.225 541.278 908.607 536.473 859.84 499.874 C 835.122 481.208 829.793 444.325 852.532 421.445 C 891.498 382.238 960.171 375.955 1012.03 372.397 z M 873.505 458.428 C 888.803 502.119 1001.22 506.045 1040.14 505.209 C 1081.52 504.165 1137.88 496.547 1170.87 469.441 C 1181.85 460.422 1172.43 443.754 1162.72 437.809 C 1119.2 411.164 1061.32 405.703 1011.35 407.446 C 975.463 408.922 884.123 416.911 873.505 458.428 z"/>
<path transform="translate(0,0)" fill="rgb(244,238,228)" d="M 1038.95 972.621 C 1058.95 972.248 1069.49 972.944 1058.58 995.44 C 1044.47 1024.56 1019.85 1148.92 1006.26 1166.42 C 1000.3 1167.53 987.563 1168.39 983.328 1163.52 C 983.375 1158.04 996.636 1115.03 998.906 1107.38 L 1038.95 972.621 z"/>
<path transform="translate(0,0)" fill="rgb(244,238,228)" d="M 1091.65 1010.76 C 1108.2 1014.25 1139.66 1042.92 1156.33 1052.3 C 1193.79 1073.37 1164.6 1088.31 1144.62 1102.35 C 1129.63 1112.78 1114.77 1123.38 1100.04 1134.17 C 1098.38 1135.55 1095.77 1135.39 1093.72 1135.45 C 1088.67 1132.82 1084.02 1120.02 1081.59 1114.42 C 1102.02 1100.57 1124.63 1088.45 1144.7 1073.52 C 1133.26 1065.9 1087.14 1038.1 1082.41 1029.68 C 1082.97 1025.43 1089.24 1015.12 1091.65 1010.76 z"/>
<path transform="translate(0,0)" fill="rgb(244,238,228)" d="M 954.546 1010.8 C 960.718 1014.68 963.687 1021.7 967.192 1028.12 C 965.99 1031.16 965.838 1032.14 965.156 1035.28 C 949.931 1043.09 917.729 1064.34 904.131 1075.58 C 920.516 1084.69 952.788 1104.15 966.993 1115.89 C 962.471 1124.51 959.806 1133.53 949.474 1135.18 C 926.699 1119.54 897.708 1098.6 875.886 1081.81 C 875.367 1076.8 875.334 1072.05 875.218 1067.03 C 879.823 1062.42 897.607 1050.25 903.58 1046.04 C 920.356 1033.99 937.347 1022.24 954.546 1010.8 z"/>
</svg>