<svg width="1024" height="1024" version="1.1" xmlns="http://www.w3.org/2000/svg" desc="Created with imagetracer.js version 1.2.6" ><path fill="rgb(0,0,0)" stroke="rgb(0,0,0)" stroke-width="0" opacity="0" d="M 0 0 L 1024 0 L 1024 1024 L 0 1024 L 0 0 Z M 502 186 L 501 187 L 489 187 L 463 192 Q 446 197 433 205 L 422 217 L 419 225 Q 419 237 424 244 Q 435 256 453 262 L 477 268 L 492 269 L 493 270 L 533 270 L 534 269 L 547 268 L 577 260 L 595 250 Q 603 243 606 232 L 606 224 L 602 214 L 590 203 L 568 193 L 538 187 L 502 186 Z M 505 286 L 487 290 L 470 300 Q 448 315 443 347 L 443 366 L 446 381 Q 452 399 463 413 Q 472 424 486 431 L 498 436 L 509 437 L 510 438 Q 524 438 534 434 L 552 423 Q 575 404 582 368 L 582 345 L 580 336 Q 576 322 568 313 Q 557 299 541 291 L 520 286 L 505 286 Z M 420 304 L 419 305 L 409 305 L 408 306 L 385 308 L 379 310 L 368 311 L 319 323 L 319 464 L 320 465 L 320 479 L 321 480 L 322 494 L 330 526 L 343 554 Q 355 574 371 592 Q 402 623 441 647 L 483 671 L 512 685 L 518 684 L 533 677 L 576 653 Q 607 635 634 612 Q 659 591 678 563 L 689 542 L 699 512 L 704 484 L 704 473 L 705 472 L 705 365 L 706 364 L 706 323 L 652 310 L 634 308 L 633 307 L 617 306 L 616 305 L 591 304 L 598 321 L 601 322 L 611 322 L 612 323 L 620 323 L 621 324 L 648 327 L 680 334 L 688 338 L 687 472 L 686 473 L 686 483 L 685 484 L 684 496 L 674 530 L 658 560 L 647 573 Q 648 575 645 574 L 645 566 L 644 565 L 643 549 L 642 548 L 642 541 L 641 540 L 641 533 L 640 532 L 636 496 Q 632 477 621 466 Q 611 454 597 446 L 587 441 L 563 433 L 554 446 Q 580 453 600 468 Q 612 477 618 493 L 621 507 L 622 522 L 623 523 L 623 531 L 626 548 L 626 555 L 627 556 L 627 563 L 628 564 L 629 580 L 630 581 L 630 590 Q 580 634 515 664 L 511 664 L 485 651 L 457 635 Q 423 615 395 590 L 395 582 L 397 573 L 397 565 L 398 564 L 399 548 L 400 547 L 405 502 Q 408 487 416 478 Q 425 467 438 460 L 461 449 L 471 446 L 463 434 Q 433 440 415 456 Q 397 469 390 492 L 387 508 L 387 515 L 386 516 L 386 523 L 385 524 L 380 573 L 377 572 Q 363 555 353 534 L 345 512 L 341 496 L 340 485 L 339 484 L 339 475 L 338 474 L 338 457 L 337 456 L 337 337 L 346 334 L 378 327 L 396 325 L 397 324 L 404 324 L 405 323 L 413 323 L 414 322 L 424 322 L 427 321 L 434 306 L 434 304 L 420 304 Z M 521 486 L 516 497 L 491 583 L 499 583 L 500 584 L 504 583 L 532 487 L 521 486 Z M 478 505 L 442 530 L 438 534 L 438 542 L 478 569 L 483 558 L 455 539 L 453 536 L 484 517 L 480 507 L 478 505 Z M 547 505 L 541 516 L 572 537 L 541 558 L 546 569 L 585 543 Q 589 541 587 533 L 547 505 Z " /><path fill="rgb(0,0,0)" stroke="rgb(0,0,0)" stroke-width="0" opacity="0" d="M 504.5 203 L 521.5 203 L 522.5 204 L 534.5 204 L 535.5 205 L 548.5 206 L 571.5 213 Q 580.3 216.3 586 222.5 Q 588.8 225.2 588 231.5 L 582.5 238 L 568.5 245 L 545.5 251 L 529.5 252 L 528.5 253 L 494.5 253 L 493.5 252 L 485.5 252 L 469.5 249 L 456.5 245 L 447.5 241 L 438 233.5 L 437 227.5 Q 438.3 221.8 442.5 219 Q 452.4 212.4 465.5 209 L 484.5 205 L 503.5 204 L 504.5 203 Z " /><path fill="rgb(0,0,0)" stroke="rgb(0,0,0)" stroke-width="0" opacity="0" d="M 501.5 303 L 522.5 303 L 530.5 305 Q 545.9 310.6 555 322.5 L 563 336.5 L 565 344.5 L 565 367.5 Q 559.5 395 541.5 410 Q 533.8 416.8 522.5 420 L 507.5 421 Q 485.8 416.8 475 401.5 Q 466.4 390.6 462 375.5 L 460 365.5 L 460 347.5 L 466 328.5 L 479.5 313 Q 488.3 305.8 501.5 303 Z " /><path fill="rgb(233,222,200)" stroke="rgb(233,222,200)" stroke-width="0" opacity="0.9607843137254902" d="M 501.5 186 L 537.5 187 L 567.5 193 L 589.5 203 L 602 213.5 L 606 223.5 L 606 231.5 Q 602.9 243.4 594.5 250 L 576.5 260 L 546.5 268 L 533.5 269 L 532.5 270 L 492.5 270 L 491.5 269 L 476.5 268 L 452.5 262 Q 434.9 256.1 424 243.5 Q 418.5 237 419 224.5 L 422 216.5 L 432.5 205 Q 445.6 196.6 462.5 192 L 488.5 187 L 500.5 187 L 501.5 186 Z M 505 203 L 504 204 L 485 205 L 466 209 Q 452 212 443 219 Q 438 222 437 228 L 438 234 L 448 241 L 457 245 L 470 249 L 486 252 L 494 252 L 495 253 L 529 253 L 530 252 L 546 251 L 569 245 L 583 238 L 588 232 Q 589 225 586 223 Q 580 216 572 213 L 549 206 L 536 205 L 535 204 L 523 204 L 522 203 L 505 203 Z " /><path fill="rgb(233,222,200)" stroke="rgb(233,222,200)" stroke-width="0" opacity="0.9607843137254902" d="M 504.5 286 L 519.5 286 L 540.5 291 Q 557.3 298.7 568 312.5 Q 576 322 580 335.5 L 582 344.5 L 582 367.5 Q 575.4 403.9 551.5 423 L 533.5 434 Q 523.5 438 509.5 438 L 508.5 437 L 497.5 436 L 485.5 431 Q 472.2 423.8 463 412.5 Q 451.5 399.5 446 380.5 L 443 365.5 L 443 346.5 Q 448.2 315.2 469.5 300 L 486.5 290 L 504.5 286 Z M 502 303 Q 488 306 480 313 L 466 329 L 460 348 L 460 366 L 462 376 Q 466 391 475 402 Q 486 417 508 421 L 523 420 Q 534 417 542 410 Q 559 395 565 368 L 565 345 L 563 337 L 555 323 Q 546 311 531 305 L 523 303 L 502 303 Z " /><path fill="rgb(233,222,200)" stroke="rgb(233,222,200)" stroke-width="0" opacity="0.9607843137254902" d="M 419.5 304 L 433.5 304 L 434 305.5 L 427 321 L 423.5 322 L 413.5 322 L 412.5 323 L 404.5 323 L 403.5 324 L 396.5 324 L 395.5 325 L 377.5 327 L 345.5 334 L 337 337 L 337 455.5 L 338 456.5 L 338 473.5 L 339 474.5 L 339 483.5 L 340 484.5 L 341 495.5 L 345 511.5 L 353 533.5 Q 362.9 555.3 377 572 L 379.5 573 L 385 523.5 L 386 522.5 L 386 515.5 L 387 514.5 L 387 507.5 L 390 491.5 Q 397.4 468.9 414.5 456 Q 433.3 439.8 462.5 434 L 471 446 L 460.5 449 L 437.5 460 Q 425 467 416 477.5 Q 407.8 486.8 405 501.5 L 400 546.5 L 399 547.5 L 398 563.5 L 397 564.5 L 397 572.5 L 395 581.5 L 395 589.5 Q 422.9 615.1 456.5 635 L 484.5 651 L 510.5 664 L 514.5 664 Q 580 634.5 630 589.5 L 630 580.5 L 629 579.5 L 628 563.5 L 627 562.5 L 627 555.5 L 626 554.5 L 626 547.5 L 623 530.5 L 623 522.5 L 622 521.5 L 621 506.5 L 618 492.5 Q 612 477 599.5 468 Q 580.3 453 554 446 L 562.5 433 L 586.5 441 L 596.5 446 Q 610.8 453.7 621 465.5 Q 631.8 477.2 636 495.5 L 640 531.5 L 641 532.5 L 641 539.5 L 642 540.5 L 642 547.5 L 643 548.5 L 644 564.5 L 645 565.5 L 645 574 Q 647.7 575.1 647 572.5 L 658 559.5 L 674 529.5 L 684 495.5 L 685 483.5 L 686 482.5 L 686 472.5 L 687 471.5 L 688 337.5 L 679.5 334 L 647.5 327 L 620.5 324 L 619.5 323 L 611.5 323 L 610.5 322 L 600.5 322 L 598 321 L 591 304 L 615.5 305 L 616.5 306 L 632.5 307 L 633.5 308 L 651.5 310 L 706 323 L 706 363.5 L 705 364.5 L 705 471.5 L 704 472.5 L 704 483.5 L 699 511.5 L 689 541.5 L 678 562.5 Q 659.1 590.6 633.5 612 Q 606.6 634.6 575.5 653 L 532.5 677 L 517.5 684 L 511.5 685 L 482.5 671 L 440.5 647 Q 401.7 623.3 371 591.5 Q 355.2 574.3 343 553.5 L 330 525.5 L 322 493.5 L 321 479.5 L 320 478.5 L 320 464.5 L 319 463.5 L 319 323 L 367.5 311 L 378.5 310 L 384.5 308 L 407.5 306 L 408.5 305 L 418.5 305 L 419.5 304 Z " /><path fill="rgb(233,222,200)" stroke="rgb(233,222,200)" stroke-width="0" opacity="0.9607843137254902" d="M 520.5 486 L 532 487 L 504 583 L 499.5 584 L 498.5 583 L 491 583 L 516 496.5 L 520.5 486 Z " /><path fill="rgb(233,222,200)" stroke="rgb(233,222,200)" stroke-width="0" opacity="0.9607843137254902" d="M 477.5 505 L 480 506.5 L 484 516.5 L 453 536 L 454.5 539 L 483 557.5 L 477.5 569 L 438 542 L 438 533.5 L 441.5 530 L 477.5 505 Z " /><path fill="rgb(233,222,200)" stroke="rgb(233,222,200)" stroke-width="0" opacity="0.9607843137254902" d="M 546.5 505 L 587 532.5 Q 589 541 584.5 543 L 546 569 L 541 557.5 L 572 536.5 L 541 515.5 L 546.5 505 Z " /></svg>